# xmcd
#
# Track frame offsets:
#	150
#	12517
#	24108
#	37563
#	51322
#	63697
#
# Disc length: 1008 seconds
#
# Revision: 0
# Processed by: cddbd v1.5.2PL0 Copyright (c) Steve Scherf et al.
# Submitted via: EasyCDDAExtractor 16.0.6.1
#
DISCID=4103ee06
DTITLE=Κόλλιας Κώστας - Τα τελευταία μου τραγούδια-Κ. Κόλλιας
DYEAR=1980
DGENRE=Λαϊκή
TTITLE0=Έριξες λάδι στη φωτιά [Α. Ρεπάνης-Κ. Καπλάνογλου]
TTITLE1=Όλα κι όλα [Α. Ρεπάνης-Τ. Οικονόμου]
TTITLE2=Γεννήθηκα Παρασκευή [Α. Ρεπάνης-Τ. Οικονόμου]
TTITLE3=Σε χρειάστηκα [Α. Ρεπάνης-Τ. Οικονόμου]
TTITLE4=Βαριά κουβέντα ο χωρισμός [Α. Ρεπάνης-Τ. Οικονόμου]
TTITLE5=Περιεχόμενο μηδέν [Α. Ρεπάνη-Έφη Θεοδωσίου]
EXTD=
EXTT0=
EXTT1=
EXTT2=
EXTT3=
EXTT4=
EXTT5=
PLAYORDER=
